<?xml version="1.0" encoding="UTF-8" standalone="no"?>
<!-- Generator: Adobe Illustrator 21.0.0, SVG Export Plug-In . SVG Version: 6.00 Build 0)  -->

<svg
   xmlns:dc="http://purl.org/dc/elements/1.1/"
   xmlns:cc="http://creativecommons.org/ns#"
   xmlns:rdf="http://www.w3.org/1999/02/22-rdf-syntax-ns#"
   xmlns:svg="http://www.w3.org/2000/svg"
   xmlns="http://www.w3.org/2000/svg"
   xmlns:sodipodi="http://sodipodi.sourceforge.net/DTD/sodipodi-0.dtd"
   xmlns:inkscape="http://www.inkscape.org/namespaces/inkscape"
   version="1.1"
   id="Capa_1"
   x="0px"
   y="0px"
   viewBox="0 0 518.49996 465.95768"
   xml:space="preserve"
   width="518.50098"
   height="465.95859"
   sodipodi:docname="bee.svg"
   inkscape:version="0.92.3 (2405546, 2018-03-11)"><metadata
   id="metadata885"><rdf:RDF><cc:Work
       rdf:about=""><dc:format>image/svg+xml</dc:format><dc:type
         rdf:resource="http://purl.org/dc/dcmitype/StillImage" /><dc:title></dc:title></cc:Work></rdf:RDF></metadata><defs
   id="defs883" /><sodipodi:namedview
   pagecolor="#ffffff"
   bordercolor="#666666"
   borderopacity="1"
   objecttolerance="10"
   gridtolerance="10"
   guidetolerance="10"
   inkscape:pageopacity="0"
   inkscape:pageshadow="2"
   inkscape:window-width="2400"
   inkscape:window-height="1474"
   id="namedview881"
   showgrid="false"
   fit-margin-top="0"
   fit-margin-left="0"
   fit-margin-right="0"
   fit-margin-bottom="0"
   inkscape:zoom="2"
   inkscape:cx="301.00874"
   inkscape:cy="239.94104"
   inkscape:window-x="0"
   inkscape:window-y="60"
   inkscape:window-maximized="1"
   inkscape:current-layer="Capa_1" />
<path
   style="fill:#ffffff;fill-opacity:1"
   id="path887"
   d="m 415.499,121.37068 c -15.824,0 -37.294,3.928 -59.035,10.405 -9.69,-31.803002 -33.944,-56.776002 -64.282,-68.027002 4.629,-16.441 18.793,-28.578 36.222,-30.322 8.243,-0.825 14.256,-8.176 13.432,-16.419 -0.825,-8.2430004 -8.171,-14.2570004 -16.419,-13.4320004 -30.555,3.057 -55.259,24.7490004 -62.609,53.9100004 -2.256,-0.148 -4.523,-0.248 -6.809,-0.248 -2.287,0 -4.553,0.1 -6.809,0.246 -7.35,-29.16 -32.054,-50.8500004 -62.608,-53.9080004 -8.246,-0.822 -15.594,5.189 -16.419,13.4320004 -0.825,8.243 5.188,15.594 13.432,16.419 17.411,1.742 31.564,13.857 36.208,30.272 -30.405,11.218 -54.575,36.198 -64.257,68.079002 -21.745,-6.479 -43.219,-10.408 -59.046,-10.408 -53.21,0 -96.5,43.29 -96.5,96.5 0,53.21 43.29,96.5 96.5,96.5 14.723,0 34.332,-3.401 54.5,-9.09 v 25.09 c 0,52.804 39.183,96.622 90,103.923 v 16.665 c 0,8.284 6.716,15 15,15 8.284,0 15,-6.716 15,-15 v -16.665 c 50.817,-7.301 90,-51.119 90,-103.924 v -25.09 c 20.168,5.689 39.777,9.09 54.5,9.09 53.21,0 96.5,-43.29 96.5,-96.5 -0.002,-53.208 -43.292,-96.498 -96.501,-96.498 z m -385.5,96.5 c -20,181.906 -10,90.953 0,0 z"
   inkscape:connector-curvature="0"
   sodipodi:nodetypes="sccccccsccscccssscscssscscscscc" /><path
   style="fill:#ffc534;fill-opacity:1"
   id="path889"
   d="m 415.499,121.37068 c -15.824,0 -37.294,3.928 -59.035,10.405 -9.69,-31.803002 -33.944,-56.776002 -64.282,-68.027002 4.629,-16.441 18.793,-28.578 36.222,-30.322 8.243,-0.825 14.256,-8.176 13.432,-16.419 -0.825,-8.2430004 -8.171,-14.2570004 -16.419,-13.4320004 -30.555,3.057 -55.259,24.7490004 -62.609,53.9100004 -2.256,-0.148 -4.523,-0.248 -6.809,-0.248 -2.287,0 -4.553,0.1 -6.809,0.246 -7.35,-29.16 -32.054,-50.8500004 -62.608,-53.9080004 -8.246,-0.822 -15.594,5.189 -16.419,13.4320004 -0.825,8.243 5.188,15.594 13.432,16.419 17.411,1.742 31.564,13.857 36.208,30.272 -30.405,11.218 -54.575,36.198 -64.257,68.079002 -21.745,-6.479 -43.219,-10.408 -59.046,-10.408 -53.21,0 -96.5,43.29 -96.5,96.5 0,53.21 43.29,96.5 96.5,96.5 14.723,0 34.332,-3.401 54.5,-9.09 v 25.09 c 0,52.804 39.183,96.622 90,103.923 v 16.665 c 0,8.284 6.716,15 15,15 8.284,0 15,-6.716 15,-15 v -16.665 c 50.817,-7.301 90,-51.119 90,-103.924 v -25.09 c 20.168,5.689 39.777,9.09 54.5,9.09 53.21,0 96.5,-43.29 96.5,-96.5 -0.002,-53.208 -43.292,-96.498 -96.501,-96.498 z m -319,163 c -36.668,0 -66.5,-29.832 -66.5,-66.5 0,-36.668 29.832,-66.5 66.5,-66.5 18.47,0 54.075,7.732 86.391,22.512 30.908,14.136 50.109,30.991 50.109,43.988 0,12.997 -19.201,29.852 -50.109,43.988 -32.316,14.779 -67.922,22.512 -86.391,22.512 z m 319,0 c -18.47,0 -54.075,-7.732 -86.391,-22.512 -30.909,-14.136 -50.109,-30.991 -50.109,-43.988 0,-12.997 19.201,-29.853 50.109,-43.988 32.315,-14.779 67.921,-22.512 86.391,-22.512 36.668,0 66.5,29.832 66.5,66.5 -0.001,36.668 -29.833,66.5 -66.5,66.5 z"
   inkscape:connector-curvature="0"
   sodipodi:nodetypes="sccccccsccscccssscscssscscscsssscscsscscscs" /><path
   d="m 415.499,121.37068 c -15.824,0 -37.294,3.928 -59.035,10.405 -9.69,-31.803002 -33.944,-56.776002 -64.282,-68.027002 4.629,-16.441 18.793,-28.578 36.222,-30.322 8.243,-0.825 14.256,-8.176 13.432,-16.419 -0.825,-8.2430004 -8.171,-14.2570004 -16.419,-13.4320004 -30.555,3.057 -55.259,24.7490004 -62.609,53.9100004 -2.256,-0.148 -4.523,-0.248 -6.809,-0.248 -2.287,0 -4.553,0.1 -6.809,0.246 -7.35,-29.16 -32.054,-50.8500004 -62.608,-53.9080004 -8.246,-0.822 -15.594,5.189 -16.419,13.4320004 -0.825,8.243 5.188,15.594 13.432,16.419 17.411,1.742 31.564,13.857 36.208,30.272 -30.405,11.218 -54.575,36.198 -64.257,68.079002 -21.745,-6.479 -43.219,-10.408 -59.046,-10.408 -53.21,0 -96.5,43.29 -96.5,96.5 0,53.21 43.29,96.5 96.5,96.5 14.723,0 34.332,-3.401 54.5,-9.09 v 25.09 c 0,52.804 39.183,96.622 90,103.923 v 16.665 c 0,8.284 6.716,15 15,15 8.284,0 15,-6.716 15,-15 v -16.665 c 50.817,-7.301 90,-51.119 90,-103.924 v -25.09 c 20.168,5.689 39.777,9.09 54.5,9.09 53.21,0 96.5,-43.29 96.5,-96.5 -0.002,-53.208 -43.292,-96.498 -96.501,-96.498 z m -159.5,-34.132002 c 33.5,0 62.966,22.586002 72.1,54.439002 -3.906,1.577 -7.743,3.219 -11.469,4.923 -22.66,10.364 -48.497,25.97 -60.632,46.733 -12.135,-20.763 -37.972,-36.37 -60.632,-46.733 -3.731,-1.706 -7.573,-3.35 -11.485,-4.929 9.119,-31.905 38.462,-54.433002 72.118,-54.433002 z M 295.78,278.36968 h -79.562 c 16.119,-9.444 31.296,-21.443 39.781,-35.962 8.485,14.519 23.661,26.518 39.781,35.962 z m -199.281,6.001 c -36.668,0 -66.5,-29.832 -66.5,-66.5 0,-36.668 29.832,-66.5 66.5,-66.5 18.47,0 54.075,7.732 86.391,22.512 30.908,14.136 50.109,30.991 50.109,43.988 0,12.997 -19.201,29.852 -50.109,43.988 -32.316,14.779 -67.922,22.512 -86.391,22.512 z m 159.5,121 c -27.494,0 -51.565,-14.88 -64.623,-37 h 129.245 c -13.057,22.12 -37.129,37 -64.622,37 z m 75,-75 c 0,2.702 -0.151,5.37 -0.432,7.999 H 181.43 c -0.28,-2.629 -0.432,-5.297 -0.432,-7.999 v -22.001 h 150 v 22.001 z m 84.5,-46 c -18.47,0 -54.075,-7.732 -86.391,-22.512 -30.909,-14.136 -50.109,-30.991 -50.109,-43.988 0,-12.997 19.201,-29.853 50.109,-43.988 32.315,-14.779 67.921,-22.512 86.391,-22.512 36.668,0 66.5,29.832 66.5,66.5 -0.001,36.668 -29.833,66.5 -66.5,66.5 z"
   id="path878"
   style="fill:#9f7006;fill-opacity:1"
   inkscape:connector-curvature="0" />















<path
   style="fill:#1a1a1a;fill-opacity:1"
   id="path891"
   d="m 421.99899,117.87069 c -15.824,0 -37.294,3.928 -59.035,10.405 -9.69,-31.803002 -33.944,-56.776005 -64.282,-68.027005 4.629,-16.441 18.793,-28.578 36.222,-30.322 8.243,-0.825 14.256,-8.176 13.432,-16.419 -0.825,-8.2430004 -8.171,-14.25700042 -16.419,-13.43200042 -30.555,3.05700002 -55.259,24.74900042 -62.609,53.91000042 -2.256,-0.148 -4.523,-0.248 -6.809,-0.248 -2.287,0 -4.553,0.1 -6.809,0.246 -7.35,-29.16 -32.054,-50.8500004 -62.608,-53.90800042 -8.246,-0.822 -15.594,5.18900002 -16.419,13.43200042 -0.825,8.243 5.188,15.594 13.432,16.419 17.411,1.742 31.564,13.857 36.208,30.272 -30.405,11.218 -54.575,36.198003 -64.257,68.079005 -21.745,-6.479 -43.219,-10.408 -59.046,-10.408 -53.210003,0 -96.5000027,43.29 -96.5000027,96.5 0,53.21 43.2899997,96.5 96.5000027,96.5 14.723,0 34.332,-3.401 54.5,-9.09 v 25.09 c 0,52.804 39.183,96.622 90,103.923 v 16.665 c 0,8.284 6.716,15 15,15 8.284,0 15,-6.716 15,-15 v -16.665 c 50.817,-7.301 90,-51.119 90,-103.924 v -25.09 c 20.168,5.689 39.777,9.09 54.5,9.09 53.21,0 96.5,-43.29 96.5,-96.5 -0.002,-53.208 -43.292,-96.498 -96.501,-96.498 z m -159.5,-34.132002 c 33.5,0 62.966,22.586002 72.1,54.439002 -3.906,1.577 -7.743,3.219 -11.469,4.923 -22.66,10.364 -48.497,25.97 -60.632,46.733 -12.135,-20.763 -37.972,-36.37 -60.632,-46.733 -3.731,-1.706 -7.573,-3.35 -11.485,-4.929 9.119,-31.905 38.462,-54.433002 72.118,-54.433002 z m 39.781,191.131002 h -79.562 c 16.119,-9.444 31.296,-21.443 39.781,-35.962 8.485,14.519 23.661,26.518 39.781,35.962 z m -199.281,6.001 c -36.668003,0 -66.500003,-29.832 -66.500003,-66.5 0,-36.668 29.832,-66.5 66.500003,-66.5 18.47,0 54.075,7.732 86.391,22.512 30.908,14.136 50.109,30.991 50.109,43.988 0,12.997 -19.201,29.852 -50.109,43.988 -32.316,14.779 -67.922,22.512 -86.391,22.512 z m 159.5,121 c -27.494,0 -51.565,-14.88 -64.623,-37 h 129.245 c -13.057,22.12 -37.129,37 -64.622,37 z m 75,-75 c 0,2.702 -0.151,5.37 -0.432,7.999 h -149.137 c -0.28,-2.629 -0.432,-5.297 -0.432,-7.999 v -22.001 h 150 v 22.001 z m 84.5,-46 c -18.47,0 -54.075,-7.732 -86.391,-22.512 -30.909,-14.136 -50.109,-30.991 -50.109,-43.988 0,-12.997 19.201,-29.853 50.109,-43.988 32.315,-14.779 67.921,-22.512 86.391,-22.512 36.668,0 66.5,29.832 66.5,66.5 -10e-4,36.668 -29.833,66.5 -66.5,66.5 z"
   inkscape:connector-curvature="0" /></svg>