<?xml version="1.0" encoding="iso-8859-1"?>
<!-- Generator: Adobe Illustrator 19.0.0, SVG Export Plug-In . SVG Version: 6.00 Build 0)  -->
<svg version="1.1" id="Capa_1" xmlns="http://www.w3.org/2000/svg" xmlns:xlink="http://www.w3.org/1999/xlink" x="0px" y="0px"
	 viewBox="0 0 512 512" style="enable-background:new 0 0 512 512;" xml:space="preserve">
<circle style="fill:#87D7F5;" cx="256" cy="256" r="256"/>
<g>
	<path style="fill:#BAEAF7;" d="M104.321,49.771h39.764c3.678,0,7.011,1.494,9.415,3.908c2.414,2.414,3.908,5.736,3.908,9.425
		c0,7.356-5.966,13.322-13.322,13.322h-31.5c-3.678,0-7.011,1.484-9.415,3.897c-2.414,2.414-3.908,5.736-3.908,9.425
		c0,7.356,5.966,13.322,13.322,13.322h73.306c3.678,0,7.011,1.494,9.415,3.908c2.414,2.403,3.908,5.736,3.908,9.415
		c0,7.356-5.966,13.322-13.322,13.322H86.473c-3.678,0-7.011,1.494-9.425,3.908c-2.403,2.403-3.897,5.736-3.897,9.415
		c0,7.356,5.966,13.322,13.322,13.322h39.16c3.678,0,7.011,1.494,9.415,3.908c2.414,2.403,3.908,5.736,3.908,9.415
		c0,7.356-5.966,13.322-13.322,13.322l-115.057,0.001C26.625,128.971,60.021,82.408,104.321,49.771z"/>
	<path style="fill:#BAEAF7;" d="M379.038,204.982h73.16c7.356,0,13.322-5.966,13.322-13.322c0-3.679-1.494-7.012-3.897-9.415
		c-2.414-2.414-5.747-3.908-9.425-3.908H423.78c-7.356,0-13.322-5.966-13.322-13.322c0-3.679,1.494-7.012,3.908-9.415
		c2.404-2.414,5.737-3.908,9.415-3.908h11.306h54.756c11.083,24.809,18.329,51.705,20.995,79.936l-131.802-0.001
		c-7.356,0-13.322-5.966-13.322-13.322c0-3.679,1.494-7.012,3.908-9.415C372.027,206.476,375.36,204.982,379.038,204.982z"/>
</g>
<path style="fill:#D8CCBC;" d="M256.25,0c-4.143,0-7.5,3.358-7.5,7.5v15v65.335v15h15v-15V22.5v-15C263.75,3.358,260.392,0,256.25,0
	z"/>
<path style="fill:#88888F;" d="M263.75,62.724h-9.5h-5.263c-2.34,0-4.237,1.897-4.237,4.237v20.596h9.5h9.5h4V66.724
	C267.75,64.515,265.959,62.724,263.75,62.724L263.75,62.724z"/>
<rect x="200.74" y="184.74" style="fill:#BFA993;" width="111.03" height="75.997"/>
<rect x="200.74" y="184.74" style="fill:#AA927D;" width="26.8" height="75.997"/>
<rect x="227.41" y="118.11" style="fill:#D8CCBC;" width="57.685" height="63.62"/>
<rect x="227.41" y="118.11" style="fill:#C6B6A5;" width="28.842" height="63.62"/>
<polygon style="fill:#9D9D9E;" points="267.75,87.557 256.25,87.557 244.75,87.557 227.408,118.112 256.25,118.112 285.092,118.112 
	"/>
<polygon style="fill:#88888F;" points="267.75,87.557 256.25,87.557 244.75,87.557 227.408,118.112 256.25,118.112 267.854,87.741 
	"/>
<path style="fill:#BFA993;" d="M256.25,129.057L256.25,129.057c-7.456,0-13.5,6.044-13.5,13.5v17.198
	c0,1.786,1.447,3.233,3.233,3.233h19.471c2.373,0,4.296-1.924,4.296-4.296v-16.134C269.75,135.101,263.706,129.057,256.25,129.057z"
	/>
<path style="fill:#AA927D;" d="M256.25,159.755v-17.198c0-4.994,2.719-9.344,6.75-11.679c-1.987-1.151-4.288-1.821-6.75-1.821
	c-7.456,0-13.5,6.044-13.5,13.5v17.198c0,1.785,1.447,3.233,3.233,3.233h13.5C257.698,162.988,256.25,161.54,256.25,159.755z"/>
<rect x="42.75" y="292.06" style="fill:#FC6D6D;" width="427" height="87"/>
<rect x="43.693" y="292.06" style="fill:#F95E5A;" width="87.51" height="87"/>
<path style="fill:#FC6D6D;" d="M54.087,413.38c35.601,45.61,86.314,78.846,144.615,92.177h114.595
	c58.302-13.331,109.014-46.567,144.615-92.177H54.087z"/>
<path style="fill:#F95E5A;" d="M131.199,479.55v-66.17H54.087C75.058,440.247,101.277,462.81,131.199,479.55z"/>
<path style="fill:#EA5050;" d="M42.75,397.657c3.585,5.387,7.364,10.634,11.337,15.723h403.826
	c4.159-5.328,8.103-10.829,11.837-16.482v-17.841h-427V397.657z"/>
<path style="fill:#D84545;" d="M42.75,397.657c3.585,5.387,7.364,10.634,11.337,15.723h77.112v-34.323H42.75V397.657z"/>
<rect x="82.923" y="257.73" style="fill:#EBE4DD;" width="346.65" height="34.32"/>
<rect x="82.923" y="257.73" style="fill:#D8CCBC;" width="48.28" height="34.32"/>
<g>
	<path style="fill:#C6B6A5;" d="M42.75,252.557c-4.142,0-7.5,3.357-7.5,7.5V385.68c4.607,7.827,9.612,15.39,15,22.655V260.057
		C50.25,255.915,46.892,252.557,42.75,252.557z"/>
	<path style="fill:#C6B6A5;" d="M477.25,384.835V260.057c0-4.143-3.358-7.5-7.5-7.5s-7.5,3.357-7.5,7.5V407.65
		C467.64,400.332,472.649,392.718,477.25,384.835z"/>
	<path style="fill:#C6B6A5;" d="M429.577,226.557c-4.142,0-7.5,3.357-7.5,7.5v58h15v-58
		C437.077,229.915,433.719,226.557,429.577,226.557z"/>
	<path style="fill:#C6B6A5;" d="M82.923,226.557c-4.142,0-7.5,3.357-7.5,7.5v58h15v-58
		C90.423,229.915,87.065,226.557,82.923,226.557z"/>
</g>
<g>
	<path style="fill:#D8CCBC;" d="M265.665,354.21h-18.831c-2.256,0-4.084-1.829-4.084-4.084v-29.138c0-2.256,1.829-4.085,4.084-4.085
		h18.831c2.256,0,4.085,1.829,4.085,4.085v29.138C269.75,352.382,267.921,354.21,265.665,354.21z"/>
	<path style="fill:#D8CCBC;" d="M321.441,354.21H302.61c-2.256,0-4.084-1.829-4.084-4.084v-29.138c0-2.256,1.829-4.085,4.084-4.085
		h18.831c2.256,0,4.085,1.829,4.085,4.085v29.138C325.526,352.382,323.697,354.21,321.441,354.21z"/>
	<path style="fill:#D8CCBC;" d="M209.89,354.21h-18.831c-2.256,0-4.084-1.829-4.084-4.084v-29.138c0-2.256,1.829-4.085,4.084-4.085
		h18.831c2.256,0,4.085,1.829,4.085,4.085v29.138C213.974,352.382,212.146,354.21,209.89,354.21z"/>
	<path style="fill:#D8CCBC;" d="M432.992,354.21h-18.831c-2.256,0-4.084-1.829-4.084-4.084v-29.138c0-2.256,1.829-4.085,4.084-4.085
		h18.831c2.256,0,4.085,1.829,4.085,4.085v29.138C437.077,352.382,435.248,354.21,432.992,354.21z"/>
	<path style="fill:#D8CCBC;" d="M377.217,354.21h-18.831c-2.256,0-4.084-1.829-4.084-4.084v-29.138c0-2.256,1.829-4.085,4.084-4.085
		h18.831c2.256,0,4.085,1.829,4.085,4.085v29.138C381.301,352.382,379.473,354.21,377.217,354.21z"/>
	<path style="fill:#D8CCBC;" d="M154.114,354.21h-18.831c-2.256,0-4.085-1.829-4.085-4.084v-29.138c0-2.256,1.829-4.085,4.085-4.085
		h18.831c2.256,0,4.084,1.829,4.084,4.085v29.138C158.199,352.382,156.37,354.21,154.114,354.21z"/>
</g>
<path style="fill:#C6B6A5;" d="M98.339,354.21H79.508c-2.256,0-4.084-1.829-4.084-4.084v-29.138c0-2.256,1.829-4.085,4.084-4.085
	h18.831c2.256,0,4.084,1.829,4.084,4.085v29.138C102.423,352.382,100.594,354.21,98.339,354.21z"/>
<path style="fill:#D8CCBC;" d="M275.408,436.148h-38.316c-4.59,0-8.311,3.721-8.311,8.311v31.454v27.833v1.811h54.937v-1.811
	v-27.833V444.46C283.719,439.869,279.998,436.148,275.408,436.148z"/>
<path style="fill:#C6B6A5;" d="M256.25,475.914V444.46c0-4.59,3.721-8.311,8.311-8.311h-27.469c-4.59,0-8.311,3.721-8.311,8.311
	v31.454v27.833v1.811h27.469v-1.811V475.914z"/>
<g>
	<path style="fill:#D8CCBC;" d="M321.441,478.122H302.61c-2.256,0-4.084-1.829-4.084-4.084V444.9c0-2.256,1.829-4.084,4.084-4.084
		h18.831c2.256,0,4.085,1.829,4.085,4.084v29.138C325.526,476.293,323.697,478.122,321.441,478.122z"/>
	<path style="fill:#D8CCBC;" d="M209.89,478.122h-18.831c-2.256,0-4.084-1.829-4.084-4.084V444.9c0-2.256,1.829-4.084,4.084-4.084
		h18.831c2.256,0,4.085,1.829,4.085,4.084v29.138C213.974,476.293,212.146,478.122,209.89,478.122z"/>
	<path style="fill:#D8CCBC;" d="M433.119,440.828c-0.043-0.001-0.083-0.013-0.127-0.013h-18.831c-2.256,0-4.084,1.829-4.084,4.085
		v15.546C418.142,454.358,425.837,447.808,433.119,440.828z"/>
	<path style="fill:#D8CCBC;" d="M377.217,478.122h-18.831c-2.256,0-4.084-1.829-4.084-4.084V444.9c0-2.256,1.829-4.084,4.084-4.084
		h18.831c2.256,0,4.085,1.829,4.085,4.084v29.138C381.301,476.293,379.473,478.122,377.217,478.122z"/>
	<path style="fill:#D8CCBC;" d="M154.114,478.122h-18.831c-2.256,0-4.085-1.829-4.085-4.084V444.9c0-2.256,1.829-4.084,4.085-4.084
		h18.831c2.256,0,4.084,1.829,4.084,4.084v29.138C158.199,476.293,156.37,478.122,154.114,478.122z"/>
</g>
<path style="fill:#C6B6A5;" d="M98.339,440.815H79.508c-0.199,0-0.388,0.031-0.579,0.058c7.419,7.108,15.264,13.774,23.495,19.955
	V444.9C102.423,442.644,100.594,440.815,98.339,440.815z"/>
<path style="fill:#AA927D;" d="M311.764,189.237H200.736c-4.142,0-7.5-3.357-7.5-7.5s3.358-7.5,7.5-7.5h111.028
	c4.142,0,7.5,3.357,7.5,7.5C319.264,185.879,315.906,189.237,311.764,189.237z"/>
<path style="fill:#99806D;" d="M220.736,181.737c0-4.143,3.358-7.5,7.5-7.5h-27.5c-4.142,0-7.5,3.357-7.5,7.5s3.358,7.5,7.5,7.5
	h27.5C224.094,189.237,220.736,185.879,220.736,181.737z"/>
<circle style="fill:#EBE4DD;" cx="256" cy="222.74" r="25.07"/>
<path style="fill:#D8CCBC;" d="M254.212,223.768c-4.848-8.397-4.279-18.43,0.613-26.068c-3.875,0.179-7.766,1.255-11.357,3.329
	c-11.988,6.921-16.096,22.251-9.174,34.239c6.922,11.989,22.251,16.096,34.24,9.175c3.591-2.074,6.469-4.905,8.561-8.171
	C268.033,236.689,259.06,232.165,254.212,223.768z"/>
<path style="fill:#EA5050;" d="M481.18,284.557h-44.953h-53.098h-12.977h-31.976h-12.977h-40.346H272.1h-32.2h-12.752h-40.346
	h-12.977h-31.976h-12.977H75.773H30.82c-4.142,0-7.5,3.358-7.5,7.5c0,4.143,3.358,7.5,7.5,7.5h44.953h53.098h12.977h31.976h12.977
	h40.346H239.9h32.2h12.752h40.346h12.977h31.976h12.977h53.098h44.953c4.142,0,7.5-3.357,7.5-7.5
	C488.68,287.915,485.322,284.557,481.18,284.557z"/>
<path style="fill:#88888F;" d="M338.176,497h-12.977h-40.346H272.1h-32.2h-12.753h-40.346h-12.977h-4.33
	c27.023,9.701,56.144,15,86.505,15s59.482-5.299,86.505-15H338.176z"/>
<path style="fill:#D84545;" d="M125.848,292.057c0-4.142,3.358-7.5,7.5-7.5H129.4h-0.528h-12.449h-40.65H63.325H30.82
	c-4.142,0-7.5,3.358-7.5,7.5c0,4.143,3.358,7.5,7.5,7.5h32.504h12.449h40.649h12.449h0.528h3.948
	C129.206,299.557,125.848,296.2,125.848,292.057z"/>
<g>
</g>
<g>
</g>
<g>
</g>
<g>
</g>
<g>
</g>
<g>
</g>
<g>
</g>
<g>
</g>
<g>
</g>
<g>
</g>
<g>
</g>
<g>
</g>
<g>
</g>
<g>
</g>
<g>
</g>
</svg>
